<svg xmlns="http://www.w3.org/2000/svg" viewBox="0 0 1042 166" width="1042" height="166"><rect x="18" y="18" width="24" height="24" fill="#6B6B6F"/><rect x="122" y="18" width="24" height="24" fill="#6B6B6F"/><rect x="18" y="44" width="24" height="24" fill="#6B6B6F"/><rect x="44" y="44" width="24" height="24" fill="#6B6B6F"/><rect x="96" y="44" width="24" height="24" fill="#6B6B6F"/><rect x="122" y="44" width="24" height="24" fill="#6B6B6F"/><rect x="18" y="70" width="24" height="24" fill="#6B6B6F"/><rect x="122" y="70" width="24" height="24" fill="#6B6B6F"/><rect x="18" y="96" width="24" height="24" fill="#6B6B6F"/><rect x="122" y="96" width="24" height="24" fill="#6B6B6F"/><rect x="18" y="122" width="24" height="24" fill="#6B6B6F"/><rect x="122" y="122" width="24" height="24" fill="#6B6B6F"/><rect x="70" y="70" width="24" height="24" fill="#C6FF00"/><rect x="190" y="18" width="24" height="24" fill="#6B6B6F"/><rect x="216" y="18" width="24" height="24" fill="#6B6B6F"/><rect x="242" y="18" width="24" height="24" fill="#6B6B6F"/><rect x="164" y="44" width="24" height="24" fill="#6B6B6F"/><rect x="268" y="44" width="24" height="24" fill="#6B6B6F"/><rect x="164" y="70" width="24" height="24" fill="#6B6B6F"/><rect x="190" y="70" width="24" height="24" fill="#6B6B6F"/><rect x="216" y="70" width="24" height="24" fill="#6B6B6F"/><rect x="242" y="70" width="24" height="24" fill="#6B6B6F"/><rect x="268" y="70" width="24" height="24" fill="#6B6B6F"/><rect x="164" y="96" width="24" height="24" fill="#6B6B6F"/><rect x="268" y="96" width="24" height="24" fill="#6B6B6F"/><rect x="164" y="122" width="24" height="24" fill="#6B6B6F"/><rect x="268" y="122" width="24" height="24" fill="#6B6B6F"/><rect x="216" y="44" width="24" height="24" fill="#C6FF00"/><rect x="310" y="18" width="24" height="24" fill="#6B6B6F"/><rect x="414" y="18" width="24" height="24" fill="#6B6B6F"/><rect x="310" y="44" width="24" height="24" fill="#6B6B6F"/><rect x="336" y="44" width="24" height="24" fill="#6B6B6F"/><rect x="414" y="44" width="24" height="24" fill="#6B6B6F"/><rect x="310" y="70" width="24" height="24" fill="#6B6B6F"/><rect x="362" y="70" width="24" height="24" fill="#C6FF00"/><rect x="414" y="70" width="24" height="24" fill="#6B6B6F"/><rect x="310" y="96" width="24" height="24" fill="#6B6B6F"/><rect x="388" y="96" width="24" height="24" fill="#6B6B6F"/><rect x="414" y="96" width="24" height="24" fill="#6B6B6F"/><rect x="310" y="122" width="24" height="24" fill="#6B6B6F"/><rect x="414" y="122" width="24" height="24" fill="#6B6B6F"/><rect x="456" y="18" width="24" height="24" fill="#6B6B6F"/><rect x="482" y="18" width="24" height="24" fill="#6B6B6F"/><rect x="508" y="18" width="24" height="24" fill="#6B6B6F"/><rect x="534" y="18" width="24" height="24" fill="#6B6B6F"/><rect x="560" y="18" width="24" height="24" fill="#6B6B6F"/><rect x="508" y="44" width="24" height="24" fill="#6B6B6F"/><rect x="508" y="70" width="24" height="24" fill="#C6FF00"/><rect x="508" y="96" width="24" height="24" fill="#6B6B6F"/><rect x="508" y="122" width="24" height="24" fill="#6B6B6F"/><rect x="602" y="18" width="24" height="24" fill="#6B6B6F"/><rect x="706" y="18" width="24" height="24" fill="#6B6B6F"/><rect x="602" y="44" width="24" height="24" fill="#6B6B6F"/><rect x="706" y="44" width="24" height="24" fill="#6B6B6F"/><rect x="602" y="70" width="24" height="24" fill="#6B6B6F"/><rect x="628" y="70" width="24" height="24" fill="#6B6B6F"/><rect x="654" y="70" width="24" height="24" fill="#C6FF00"/><rect x="680" y="70" width="24" height="24" fill="#6B6B6F"/><rect x="706" y="70" width="24" height="24" fill="#6B6B6F"/><rect x="602" y="96" width="24" height="24" fill="#6B6B6F"/><rect x="706" y="96" width="24" height="24" fill="#6B6B6F"/><rect x="602" y="122" width="24" height="24" fill="#6B6B6F"/><rect x="706" y="122" width="24" height="24" fill="#6B6B6F"/><rect x="774" y="18" width="24" height="24" fill="#6B6B6F"/><rect x="800" y="18" width="24" height="24" fill="#6B6B6F"/><rect x="826" y="18" width="24" height="24" fill="#6B6B6F"/><rect x="748" y="44" width="24" height="24" fill="#6B6B6F"/><rect x="852" y="44" width="24" height="24" fill="#6B6B6F"/><rect x="748" y="70" width="24" height="24" fill="#6B6B6F"/><rect x="774" y="70" width="24" height="24" fill="#6B6B6F"/><rect x="800" y="70" width="24" height="24" fill="#6B6B6F"/><rect x="826" y="70" width="24" height="24" fill="#6B6B6F"/><rect x="852" y="70" width="24" height="24" fill="#6B6B6F"/><rect x="748" y="96" width="24" height="24" fill="#6B6B6F"/><rect x="852" y="96" width="24" height="24" fill="#6B6B6F"/><rect x="748" y="122" width="24" height="24" fill="#6B6B6F"/><rect x="852" y="122" width="24" height="24" fill="#6B6B6F"/><rect x="800" y="44" width="24" height="24" fill="#C6FF00"/><rect x="894" y="18" width="24" height="24" fill="#6B6B6F"/><rect x="998" y="18" width="24" height="24" fill="#6B6B6F"/><rect x="894" y="44" width="24" height="24" fill="#6B6B6F"/><rect x="920" y="44" width="24" height="24" fill="#6B6B6F"/><rect x="998" y="44" width="24" height="24" fill="#6B6B6F"/><rect x="894" y="70" width="24" height="24" fill="#6B6B6F"/><rect x="946" y="70" width="24" height="24" fill="#C6FF00"/><rect x="998" y="70" width="24" height="24" fill="#6B6B6F"/><rect x="894" y="96" width="24" height="24" fill="#6B6B6F"/><rect x="972" y="96" width="24" height="24" fill="#6B6B6F"/><rect x="998" y="96" width="24" height="24" fill="#6B6B6F"/><rect x="894" y="122" width="24" height="24" fill="#6B6B6F"/><rect x="998" y="122" width="24" height="24" fill="#6B6B6F"/></svg>